HIERARCHY
ROOT Pelvis
{
	OFFSET 0.000000 0.000000 0.000000
	CHANNELS 6 Xposition Yposition Zposition Zrotation Yrotation Xrotation 
	JOINT Left_hip
	{
		OFFSET 0.069463 -0.088608 -0.009542
		CHANNELS 3 Zrotation Yrotation Xrotation
		JOINT Left_knee
		{
			OFFSET 0.030639 -0.359740 -0.005288
			CHANNELS 3 Zrotation Yrotation Xrotation
			JOINT Left_ankle
			{
				OFFSET -0.011068 -0.376034 -0.042462
				CHANNELS 3 Zrotation Yrotation Xrotation
				JOINT Left_foot
				{
					OFFSET 0.023192 -0.053321 0.111332
					CHANNELS 3 Zrotation Yrotation Xrotation
					End Site
					{
						OFFSET 0.000000 0.000000 0.000000
					}
				}
			}
		}
	}
	JOINT Right_hip
	{
		OFFSET -0.067438 -0.088025 -0.006263
		CHANNELS 3 Zrotation Yrotation Xrotation
		JOINT Right_knee
		{
			OFFSET -0.035962 -0.366229 -0.008063
			CHANNELS 3 Zrotation Yrotation Xrotation
			JOINT Right_ankle
			{
				OFFSET 0.013608 -0.375719 -0.040481
				CHANNELS 3 Zrotation Yrotation Xrotation
				JOINT Right_foot
				{
					OFFSET -0.021034 -0.045527 0.114617
					CHANNELS 3 Zrotation Yrotation Xrotation
					End Site
					{
						OFFSET 0.000000 0.000000 0.000000
					}
				}
			}
		}
	}
	JOINT Spine1
	{
		OFFSET -0.002610 0.101823 -0.019986
		CHANNELS 3 Zrotation Yrotation Xrotation
		JOINT Spine2
		{
			OFFSET 0.004114 0.128714 -0.000938
			CHANNELS 3 Zrotation Yrotation Xrotation
			JOINT Spine3
			{
				OFFSET 0.002191 0.048470 0.027684
				CHANNELS 3 Zrotation Yrotation Xrotation
				JOINT Neck
				{
					OFFSET -0.002856 0.198873 -0.044022
					CHANNELS 3 Zrotation Yrotation Xrotation
					JOINT Head
					{
						OFFSET 0.002981 0.062960 0.049860
						CHANNELS 3 Zrotation Yrotation Xrotation
						End Site
						{
							OFFSET 0.000000 0.000000 0.000000
						}
					}
				}
				JOINT Left_collar
				{
					OFFSET 0.073708 0.112550 -0.033440
					CHANNELS 3 Zrotation Yrotation Xrotation
					JOINT Left_shoulder
					{
						OFFSET 0.083291 0.030786 -0.008013
						CHANNELS 3 Zrotation Yrotation Xrotation
						JOINT Left_elbow
						{
							OFFSET 0.245601 -0.011792 -0.027873
							CHANNELS 3 Zrotation Yrotation Xrotation
							JOINT Left_wrist
							{
								OFFSET 0.232258 0.008622 -0.000487
								CHANNELS 3 Zrotation Yrotation Xrotation
								JOINT Left_palm
								{
									OFFSET 0.077300 -0.009457 -0.012851
									CHANNELS 3 Zrotation Yrotation Xrotation
									End Site
									{
										OFFSET 0.000000 0.000000 0.000000
									}
								}
							}
						}
					}
				}
				JOINT Right_collar
				{
					OFFSET -0.075339 0.110574 -0.037874
					CHANNELS 3 Zrotation Yrotation Xrotation
					JOINT Right_shoulder
					{
						OFFSET -0.086522 0.031207 -0.009986
						CHANNELS 3 Zrotation Yrotation Xrotation
						JOINT Right_elbow
						{
							OFFSET -0.237313 -0.011478 -0.019859
							CHANNELS 3 Zrotation Yrotation Xrotation
							JOINT Right_wrist
							{
								OFFSET -0.237599 0.007976 -0.003742
								CHANNELS 3 Zrotation Yrotation Xrotation
								JOINT Right_palm
								{
									OFFSET -0.076920 -0.006943 -0.009920
									CHANNELS 3 Zrotation Yrotation Xrotation
									End Site
									{
										OFFSET 0.000000 0.000000 0.000000
									}
								}
							}
						}
					}
				}
			}
		}
	}
}
MOTION
Frames: 16
Frame Time: 0.100000
0.049374 0.079063 -0.394335 179.688470 11.140990 -22.567537 7.807836 4.210252 -1.068036 1.644058 -3.805192 0.233118 -16.824136 6.620082 10.099430 17.338917 11.844572 -15.680925 -1.881195 -9.246305 24.566894 -2.917969 -2.385783 -2.487242 4.680124 3.500521 -4.295776 2.948324 -22.341629 -10.442362 1.747149 1.602105 14.905867 0.343648 -4.954138 6.608136 5.276032 -2.990192 1.755921 -5.475027 -9.083664 12.908324 9.793917 7.101228 -21.453883 -3.627670 18.295510 8.735893 -74.741207 0.441641 12.870423 156.090517 -54.394007 -138.079151 4.031317 -6.706777 -73.473990 2.212493 3.652940 10.732407 -4.631867 -15.940141 2.914767 80.393367 -15.685969 15.977223 -158.994635 50.130013 -146.048358 -0.589163 5.515602 -65.980660 2.559535 3.316029 3.446492 
0.001434 0.064510 -0.357005 -179.641585 11.396327 -21.440547 5.557542 5.047056 -0.217128 -0.157827 -5.048577 1.937390 -12.497425 4.714595 9.014017 11.432799 12.501925 -14.769065 -5.465505 -9.663382 24.962774 -3.704435 -1.206084 -0.406538 5.920529 2.368782 -1.977225 3.530749 -20.128825 -12.247627 2.035509 2.369572 13.080145 0.265403 -4.526101 4.581444 4.487635 -2.531480 1.924751 -4.831102 -9.918270 13.342508 8.662789 6.012039 -20.180341 -2.932601 19.306788 6.014738 -69.803707 -5.210905 5.069494 122.118925 -58.453520 -106.480910 8.880977 1.494194 -62.523105 -0.783159 2.412413 8.717781 -4.043423 -16.890651 1.015198 77.027086 -10.205214 10.986988 -135.620995 50.893286 -124.966699 -7.946721 -1.698383 -58.801501 6.530761 4.538574 1.992794 
-0.054443 0.051559 -0.319906 -178.217804 9.102648 -21.961775 3.068721 5.535532 5.706267 -1.334939 -6.572257 -0.146346 -7.308124 5.383107 4.563278 7.022975 12.595425 -12.061122 -10.171444 -8.443949 25.155597 -4.461270 1.678363 4.457261 8.257126 1.691427 0.935186 3.693997 -17.383427 -13.023626 2.373418 2.934679 10.962256 0.431469 -3.555109 5.305928 3.547507 -1.628860 1.625216 -3.845126 -9.588847 16.210605 6.276322 5.559613 -15.961997 -6.885718 17.411690 4.302562 -66.230259 -7.407405 2.581247 92.059748 -56.384287 -83.249045 18.765277 11.863440 -54.284906 -6.200080 0.273726 5.412456 0.938890 -13.768858 -0.763202 71.873804 -3.515651 9.847770 -114.698996 47.066948 -111.192905 -20.897382 -9.766437 -49.542680 12.230032 7.063284 -2.441827 
-0.107182 0.049473 -0.289834 -177.308755 7.584008 -24.789027 1.387167 6.914582 12.185620 -3.010615 -7.268990 -0.121976 -3.538211 3.961784 -0.197488 3.058554 15.751941 -9.867821 -14.239787 -6.286058 23.732012 -4.797062 3.423757 15.318767 9.212719 2.022293 3.601135 6.132926 -15.481687 -14.443602 2.732517 2.351137 12.720016 0.778547 -2.641354 10.397263 3.035018 -1.570022 -0.424325 -0.772862 -8.959839 12.743458 3.708903 5.805707 -17.923961 -17.241675 14.184034 5.513447 -64.395633 -4.857800 2.624273 97.881216 -55.937153 -88.493060 21.161547 10.822919 -46.561032 -8.849905 -1.403106 2.490991 10.566784 -8.433061 -0.014680 68.352862 -2.336896 10.943536 -117.937315 42.356630 -115.577017 -25.940662 -9.727325 -40.728280 15.092598 9.001130 -4.536868 
-0.139877 0.054218 -0.275694 -177.190679 7.417436 -27.014349 -0.576534 6.701466 16.623222 -3.327117 -8.051622 -0.511220 -0.394121 4.563049 -2.204263 2.760371 17.267139 -10.092727 -16.027334 -5.212282 15.314084 -5.078050 3.366608 34.503665 11.378421 -0.693987 10.776713 3.978172 -13.607874 -18.720804 2.029843 0.891189 15.150566 1.190079 -1.794591 14.144590 3.248752 -2.029577 -0.509242 0.230511 -9.801163 7.389164 4.785840 6.185611 -20.701531 -18.645499 9.743378 8.514544 -72.186863 -5.228877 8.632875 114.049528 -57.656126 -106.036508 20.327141 13.615583 -56.802005 -8.958583 -1.890814 4.344163 11.649002 -4.045767 1.820047 75.570619 -4.946033 16.227156 -126.750354 43.164434 -123.273199 -22.596533 -9.669731 -40.007235 13.700686 9.622720 -6.114183 
-0.154694 0.049556 -0.269624 -178.971211 7.237361 -28.170145 0.445082 7.612377 19.412356 -2.230031 -9.142973 -2.149166 -1.584492 4.695881 -1.022318 4.309263 16.534414 -11.093995 -15.354015 -6.562421 6.547854 -7.724690 -5.080934 47.996101 6.127864 -4.094514 10.354880 8.250813 -16.464022 -17.729447 2.444468 -1.587682 18.416783 1.145132 -1.898309 13.387765 3.724505 -2.545890 -1.274578 -1.454124 -9.751524 11.690149 5.152957 7.303124 -19.912188 -14.262982 3.611469 10.448988 -70.677932 -6.292793 12.375334 140.442801 -60.139325 -123.509643 13.094600 3.597799 -53.213014 -3.767114 0.970636 3.106554 6.377492 0.725864 3.002311 78.815738 -6.498355 18.833785 -140.544814 49.260903 -129.420711 -10.372462 -2.906542 -40.179330 5.228720 6.775751 -2.835675 
-0.162296 0.042981 -0.263607 179.148125 7.400907 -27.081197 2.507865 9.654672 19.006129 -1.271870 -10.199607 -2.808026 -5.832716 3.888997 -0.493552 8.899548 15.742136 -11.315536 -14.665711 -8.697622 1.037119 -9.755077 -12.566744 43.828272 7.202876 -6.931127 6.987905 2.432257 -18.472813 -14.641498 3.636594 -2.255604 20.536266 0.860111 -2.329289 12.152935 4.762484 -2.067732 -2.691289 -1.848601 -9.908492 9.746498 7.431152 6.241814 -21.924839 -9.337552 -4.276987 10.036981 -64.040232 -3.702498 12.478069 175.377745 -57.529342 -136.839838 16.522348 -8.443817 -11.724586 -5.018012 2.208517 -9.199018 0.121634 7.038709 3.626234 76.336375 -11.285401 14.866959 -165.562296 53.604682 -139.780648 -5.041908 5.381987 -22.473796 0.723278 4.954183 -3.703259 
-0.164146 0.038642 -0.248808 179.102651 7.960060 -25.684270 2.418262 9.578892 18.797839 -0.960865 -10.509631 -3.055086 -7.331557 4.025368 -1.722595 10.558199 15.279904 -10.796318 -14.800043 -7.259967 1.533842 -8.096876 -10.465737 24.790593 10.901446 -6.088199 6.523312 -4.407278 -17.086559 -11.041496 3.863872 -2.080612 18.356897 0.360988 -2.936444 12.152659 4.737525 -2.015776 -2.282270 -2.844506 -9.748197 9.978219 8.252286 5.066553 -20.462517 -9.054933 -7.124838 10.377672 -63.538358 -3.268032 15.635485 -177.241606 -64.819043 -145.551558 11.926571 -10.706746 -8.169062 -5.597703 2.498133 -9.738654 -0.204800 9.551543 3.858858 75.040743 -11.244882 17.294388 -172.230379 61.250803 -148.966255 -0.444274 6.576396 -23.481183 0.924200 4.901696 -4.874136 
-0.157213 0.040866 -0.230598 179.738968 10.429461 -24.900769 2.355754 8.499573 18.757265 -2.093138 -11.406319 -1.932201 -5.531006 2.115816 -5.011078 7.035454 16.543087 -9.201101 -15.356992 -4.289168 6.928343 -7.418190 -3.676853 3.005327 12.698250 -0.965814 5.476020 -5.285721 -16.830604 -8.190792 2.959748 -1.144256 16.215733 -0.002367 -3.604485 14.034667 4.295218 -2.272952 -2.493543 -2.379249 -9.569779 11.134024 7.878128 3.328461 -18.704817 -12.360733 -4.704212 10.973168 -66.302070 -3.810901 15.984078 179.524070 -69.493790 -144.936794 -0.622583 -9.917941 -15.384883 -4.486927 2.792115 -4.199461 3.802644 7.842279 4.118863 74.494139 -8.588062 18.649339 -169.858930 66.934117 -147.358450 9.295918 5.541466 -23.567939 2.119506 5.812931 -3.706799 
-0.132421 0.038032 -0.209622 -179.986686 13.517209 -22.992085 2.625573 6.898179 17.880864 -1.921000 -12.085712 -2.879068 -6.214715 1.700878 -4.785139 7.146074 15.832993 -9.281544 -13.594487 -3.445791 6.851985 -6.566018 -1.382691 -0.514493 15.332847 3.016207 6.558860 -7.943764 -16.621795 -7.759810 2.117695 -0.435116 15.118578 -0.742317 -2.926856 13.911767 4.041480 -1.784386 -3.023372 -1.973980 -10.818550 9.146985 10.183782 1.792585 -20.247094 -12.560718 -3.533632 10.699742 -69.374425 -2.354785 17.651384 175.523124 -71.277237 -146.925079 -10.538964 -12.036692 -28.883930 -2.885564 3.161679 -0.258318 3.070802 7.431202 4.453055 75.066221 -8.926383 19.523882 -172.363055 68.431349 -152.784388 15.356731 6.982529 -31.270140 2.689293 5.813433 -2.724115 
-0.089587 0.031935 -0.182912 178.583214 19.501494 -21.550478 4.641309 5.251036 15.030578 -0.928902 -14.463321 -1.897771 -8.339935 1.374393 -4.086700 9.356867 14.435978 -9.096291 -11.191121 -3.425191 3.921656 -6.235349 -1.117176 6.247237 13.731821 0.774119 4.876274 -7.752860 -15.252558 -7.363616 0.936442 -1.031829 14.096785 -0.876690 -3.270165 11.949200 3.850840 -2.200426 -3.322845 -1.059295 -12.491756 7.349108 11.737377 0.107815 -19.987176 -13.081602 -5.012090 11.074042 -66.269858 -2.563793 19.202499 178.066755 -72.274367 -153.003128 -9.023434 -12.864799 -33.926259 -1.702523 3.068182 0.297834 2.634202 9.432578 3.862738 71.601150 -7.231782 21.770478 179.509978 69.420161 -162.087720 12.124251 7.409965 -32.859821 1.826214 5.551964 -1.723227 
-0.040778 0.027195 -0.144037 176.888459 23.963533 -23.778802 8.251794 3.587841 15.368564 0.031741 -16.759597 0.595374 -11.286778 1.562142 -4.381299 11.197030 12.339535 -7.928450 -8.968294 -4.253269 8.909288 -4.537600 -3.804680 5.869637 10.020504 1.469355 0.902697 -2.031637 -16.847701 -4.722219 -0.171660 0.115036 13.799073 -0.468884 -3.496659 11.765184 3.807205 -1.885726 -3.902049 -1.218439 -13.949042 9.878553 12.105627 -4.635647 -17.126344 -14.132400 -5.470616 10.358098 -62.243121 -4.242262 20.990175 176.248466 -71.192072 -153.737974 -8.020125 -14.657315 -38.533108 0.139706 3.807111 2.227299 4.968084 10.726614 3.511095 67.757979 -4.500484 23.112059 179.228679 69.340175 -164.322895 9.213053 8.466750 -38.900065 0.825197 5.037015 0.426580 
0.009455 0.021538 -0.110622 174.556851 26.217420 -26.193368 12.393093 3.152572 13.119834 1.027989 -16.640962 6.244200 -14.475459 0.730711 -2.803193 12.463694 11.918577 -8.610906 -5.117754 -5.776498 13.447528 -2.375791 -5.944575 3.255765 4.620602 3.108605 -1.802947 4.788870 -19.316616 -3.130366 0.412473 0.278726 14.628976 -0.310366 -3.361721 11.370565 4.064462 -1.645151 -4.192342 -1.399443 -15.404158 11.953057 11.041660 -6.346956 -15.430028 -16.871239 -1.939140 9.952602 -64.211380 -3.243638 20.140920 172.151158 -70.398964 -147.643410 -9.598249 -14.858636 -39.278554 2.050329 3.626195 3.242019 7.041793 10.170163 3.353535 66.181723 -0.347927 23.029803 176.382718 70.533869 -165.604548 8.429857 8.125370 -39.142290 0.535931 4.880286 2.848043 
0.061723 0.026882 -0.087848 171.603555 31.069952 -29.598655 16.007114 2.492181 6.550801 -0.090421 -17.076942 17.429059 -18.439226 -0.980262 -0.393429 14.978854 12.743164 -10.259051 -1.739474 -7.638044 18.496711 -0.215362 -7.373520 -0.383816 0.295347 2.047089 -4.516889 7.755325 -19.926395 -1.585086 1.147408 0.584655 18.114830 0.210042 -4.608652 11.470200 4.738240 -2.330314 -4.220380 -0.575202 -16.731704 9.209194 11.519820 -7.985561 -15.779072 -19.863539 -1.224179 10.388537 -65.442075 -2.891364 19.867595 168.668737 -70.020930 -143.742398 -9.907806 -15.128193 -40.693389 3.258032 3.316689 3.767324 9.084429 9.810934 2.970160 65.589066 -0.567924 22.665864 176.565250 70.012099 -165.330846 7.199208 8.184147 -41.720218 0.579791 4.676471 4.589794 
0.107368 0.031670 -0.080152 170.377900 35.225107 -31.578691 17.381203 3.533589 -2.233856 -0.461686 -9.215178 28.150161 -21.747123 1.388348 6.518510 16.371847 12.739277 -12.081258 0.291923 -9.203462 19.843012 0.550387 -9.377968 -1.136911 -2.849143 1.343790 -5.164562 9.308180 -20.539609 -1.325791 1.582005 1.184936 22.500028 0.715580 -5.828979 11.887177 5.480777 -2.673290 -4.467512 -1.436414 -18.615966 7.104657 13.650036 -8.089053 -18.078693 -20.416288 -2.968329 10.993526 -64.959333 -3.343577 19.573033 163.939856 -69.093829 -141.693553 -12.455969 -16.672341 -46.303861 4.046058 3.268101 4.854423 9.150256 10.431135 3.523611 65.136041 -2.132357 21.803166 -179.191358 66.741240 -161.808082 9.076842 9.057102 -47.153871 -0.115241 4.435985 5.466545 
0.134992 0.026178 -0.077092 171.660408 37.897120 -30.668806 14.594654 8.162162 -3.134731 1.067247 3.731723 22.205241 -18.557267 2.960011 3.725266 15.005561 13.700157 -11.307528 0.664147 -9.958573 18.801086 -0.429147 -11.577744 -1.364430 -2.220851 0.934405 -3.845586 9.021180 -18.987202 -2.667821 1.575311 0.571948 25.097335 0.094451 -6.169468 11.291330 5.253072 -3.411483 -3.277319 -2.167580 -19.591545 8.404387 13.422763 -7.155146 -15.557706 -18.508637 -1.822622 10.954302 -69.925463 -6.777000 17.263356 146.203612 -63.211624 -130.240260 -4.943187 -14.451777 -60.607427 4.942007 2.606570 8.954077 6.404365 7.794469 2.260760 70.775046 -0.641005 20.722518 -158.574536 59.583976 -146.559969 2.624678 6.923752 -57.323572 0.779721 4.680382 5.827791 
